<svg width="86" height="36" viewBox="0 0 86 36" fill="none" xmlns="http://www.w3.org/2000/svg">
<path d="M17.4971 35.6288C27.1605 35.6288 34.9942 27.653 34.9942 17.8144C34.9942 7.9758 27.1605 0 17.4971 0C7.83371 0 0 7.9758 0 17.8144C0 27.653 7.83371 35.6288 17.4971 35.6288Z" fill="#323B5A"/>
<path opacity="0.05" d="M25.3525 35.6288C35.0158 35.6288 42.8496 27.6529 42.8496 17.8144C42.8496 7.97584 35.0158 0 25.3525 0C15.6892 0 7.85547 7.97584 7.85547 17.8144C7.85547 27.6529 15.6892 35.6288 25.3525 35.6288Z" fill="#F4A428"/>
<path opacity="0.1" d="M33.9229 35.6288C43.5862 35.6288 51.4199 27.6529 51.4199 17.8144C51.4199 7.97584 43.5862 0 33.9229 0C24.2596 0 16.4258 7.97584 16.4258 17.8144C16.4258 27.6529 24.2596 35.6288 33.9229 35.6288Z" fill="#F4A428"/>
<path opacity="0.15" d="M42.85 35.6288C52.3162 35.6288 59.9898 27.6529 59.9898 17.8144C59.9898 7.97584 52.3162 0 42.85 0C33.3839 0 25.71 7.97584 25.71 17.8144C25.71 27.6529 33.3839 35.6288 42.85 35.6288Z" fill="#F4A428"/>
<path opacity="0.2" d="M51.4201 35.6288C60.8863 35.6288 68.5604 27.6529 68.5604 17.8144C68.5604 7.97584 60.8863 0 51.4201 0C41.9544 0 34.2803 7.97584 34.2803 17.8144C34.2803 27.6529 41.9544 35.6288 51.4201 35.6288Z" fill="#F4A428"/>
<path opacity="0.25" d="M59.9898 35.6288C69.4556 35.6288 77.1293 27.6529 77.1293 17.8144C77.1293 7.97584 69.4556 0 59.9898 0C50.5237 0 42.8496 7.97584 42.8496 17.8144C42.8496 27.6529 50.5237 35.6288 59.9898 35.6288Z" fill="#F4A428"/>
<path d="M24.2818 11.168V24.994H23.3986V13.0597L18.2173 24.994H17.5108L12.3099 13.0597V24.994H11.4268V11.168H12.3688L17.864 23.8067L23.3593 11.168H24.2818Z" fill="white"/>
<path d="M68.5598 35.6288C78.0259 35.6288 85.7004 27.653 85.7004 17.8144C85.7004 7.9758 78.0259 0 68.5598 0C59.094 0 51.4199 7.9758 51.4199 17.8144C51.4199 27.653 59.094 35.6288 68.5598 35.6288Z" fill="#F4A428"/>
<path d="M77.844 10.6367L74.3103 24.9946H73.3172L69.6308 12.042L65.9636 24.9946H64.9706L61.418 10.6367H62.3921L65.4669 23.6708L69.1533 10.6367H70.1275L73.7946 23.6708L76.8694 10.6367H77.844Z" fill="white"/>
</svg>
