<svg width="111" height="40" viewBox="0 0 111 40" xmlns="http://www.w3.org/2000/svg" xmlns:xlink="http://www.w3.org/1999/xlink"><defs><path id="a" d="M0 .093h39.452v39.688H0z"/><path id="c" d="M.07.028h9.243v15.607H.071z"/></defs><g fill="none" fill-rule="evenodd"><g transform="translate(0 .125)"><mask id="b" fill="#fff"><use xlink:href="#a"/></mask><path d="M13.268 38.686C-8.371 31.46-1.927-2.003 20.938.196c32.057 3.084 17.869 47.016-7.67 38.49" fill="#1D55FF" mask="url(#b)"/></g><path d="M56.2 19.349c-2.89 0-4.663 1.743-4.663 5.4v3.054a2.604 2.604 0 01-2.606 2.602h-1.744V15.092h4.35v2.711c.887-2.114 2.318-3.11 4.893-2.996v4.542h-.23zm12.16 11.056v-1.797c-1.002 1.286-2.29 2.082-4.493 2.082-3.29 0-5.208-2.17-5.208-5.684v-7.311a2.604 2.604 0 012.606-2.603h1.743v8.542c0 2.057.973 3.114 2.633 3.114 1.66 0 2.718-1.057 2.718-3.114v-5.94a2.604 2.604 0 012.606-2.602h1.744v15.313h-4.35zm8.065 0V12.152A2.604 2.604 0 0179.03 9.55h1.743v18.253a2.604 2.604 0 01-2.606 2.602h-1.743zM91.33 18.292c-1.803 0-2.976 1.286-3.32 3.257h6.553c-.257-1.943-1.402-3.257-3.233-3.257m7.411 5.97H88.068c.43 1.972 1.802 3 3.748 3 .864 0 1.587-.16 2.283-.521.98-.51 2.165-.406 2.993.325l.934.825c-1.431 1.771-3.491 2.856-6.267 2.856-4.607 0-8.012-3.227-8.012-7.913v-.057c0-4.37 3.119-7.97 7.583-7.97 5.122 0 7.468 3.97 7.468 8.313v.057c0 .429-.028.686-.057 1.086" fill="#000"/><g transform="translate(101.586 14.77)"><mask id="d" fill="#fff"><use xlink:href="#c"/></mask><path d="M9.084 4.579c-2.89 0-4.664 1.742-4.664 5.399v3.055a2.604 2.604 0 01-2.606 2.602H.07V.322h4.35v2.71C5.306.92 6.737-.077 9.312.037V4.58h-.229z" fill="#000" mask="url(#d)"/></g><path d="M26.212 10.857a5.226 5.226 0 00-5.23 5.222 5.226 5.226 0 00-5.23-5.222 5.226 5.226 0 00-5.231 5.222v10.444a5.226 5.226 0 005.23 5.222 5.226 5.226 0 005.23-5.222 5.227 5.227 0 015.231-5.222 5.226 5.226 0 005.231-5.222 5.226 5.226 0 00-5.23-5.222" fill="#FFF"/></g></svg>